<?xml version="1.0" encoding="iso-8859-1"?>
<!-- Uploaded to: SVG Repo, www.svgrepo.com, Generator: SVG Repo Mixer Tools -->
<svg height="40px" width="40px" version="1.1" id="Layer_1" xmlns="http://www.w3.org/2000/svg"
	xmlns:xlink="http://www.w3.org/1999/xlink" viewBox="0 0 511.998 511.998" xml:space="preserve">
	<path style="fill:#848075;" d="M344.926,402.496c-6.224-7.167-13.297-13.572-21.064-19.059
	c-19.415-13.717-43.152-21.703-68.736-21.508c-0.307,0.002-0.612,0.021-0.919,0.025l-58.851,71.187l58.851,70.024
	c0.666,0,1.33,0.006,1.996,0.001c24.434-0.186,48.079-3.623,70.548-9.863c0.459-0.127,0.918-0.253,1.375-0.384
	c3.485-0.987,6.942-2.042,10.368-3.165c5.966-1.955,11.83-4.132,17.606-6.479c3.525-1.432,7.026-2.914,10.474-4.491
	c2.375-1.086,4.735-2.2,7.074-3.352C372.668,447.542,362,422.155,344.926,402.496z" />
	<path style="fill:#989487;" d="M186.726,384.485c-7.682,5.605-14.657,12.118-20.771,19.378
	c-16.771,19.919-27.051,45.464-27.607,73.364c11.376,5.392,23.192,10,35.368,13.785c3.443,1.07,6.915,2.072,10.415,3.006
	c0.459,0.122,0.92,0.242,1.381,0.363c21.947,5.736,44.967,8.793,68.693,8.785V361.956
	C228.978,362.343,205.699,370.642,186.726,384.485z" />
	<path style="fill:#ADA999;" d="M165.957,403.861c-16.771,19.919-27.051,45.464-27.607,73.364c11.376,5.392,23.192,10,35.368,13.785
	c3.443,1.07,6.915,2.072,10.415,3.006c0.459,0.122,0.92,0.242,1.381,0.363l-0.153-20.1
	C185.165,448.577,178.113,424.532,165.957,403.861z" />
	<path style="fill:#706B63;"
		d="M344.926,402.496c-3.221,5.673-6.055,11.594-8.477,17.72c-6.483,16.392-9.993,34.276-9.85,52.986
	l0.153,20.1c0.459-0.127,0.918-0.253,1.375-0.384c3.485-0.987,6.942-2.043,10.368-3.165c5.966-1.955,11.83-4.131,17.606-6.479
	c3.525-1.432,7.026-2.914,10.474-4.491c2.375-1.086,4.735-2.2,7.074-3.352C372.668,447.542,362,422.155,344.926,402.496z" />
	<path style="opacity:0.3;fill:#5B5751;enable-background:new    ;" d="M326.644,479.086l-0.002-0.331
	c-0.17-22.29-18.531-41.528-40.821-41.726c-3.918-0.034-7.708,0.477-11.3,1.463c-6.652,1.826-13.485,2.686-20.312,2.595
	c-5.811-0.077-11.617-0.84-17.303-2.308c-3.608-0.931-7.405-1.385-11.322-1.291c-22.284,0.537-40.349,20.054-40.18,42.344
	l0.002,0.331l0.108,14.215c21.947,5.736,44.967,8.793,68.693,8.785c0.666,0,1.33,0.006,1.996,0.001
	c24.434-0.186,48.079-3.623,70.548-9.863L326.644,479.086z" />
	<path style="fill:#706B63;" d="M299.718,431.244l18.599-18.599l-30.369-38.944h-31.387l-36.487,58.851l36.487,70.621l47.37-47.371
	c5.618-5.618,5.618-14.727,0-20.345L299.718,431.244z" />
	<path style="fill:#848075;" d="M225.175,373.701l-30.369,38.944l18.599,18.599l-4.214,4.214c-5.618,5.618-5.618,14.727,0,20.345
	l47.37,47.371V373.702h-31.386V373.701z" />
	<polygon style="fill:#CE9276;" points="207.128,385.733 254.076,432.552 301.289,385.471 " />
	<path style="fill:#706B63;" d="M438.436,232.46L438.436,232.46H73.563l0,0c0,32.847-6.009,65.261-17.579,95.686
	c-8.768,23.056,8.374,47.736,33.042,47.736h333.946c24.668,0,41.81-24.68,33.042-47.736
	C444.445,297.72,438.436,265.307,438.436,232.46z" />
	<path style="fill:#DFB296;" d="M438.436,179.494c-8.637,0-16.783,2.081-23.986,5.747C395.42,113.256,335.535,48.68,263.624,44.378
	l-54.083,341.08c14.161,7.679,30.114,11.784,46.459,11.784c23.93,0,47.025-8.789,64.875-24.727
	c26.846-23.972,65.489-61.851,85.956-97.552c8.823,6.571,19.76,10.462,31.606,10.462c29.252,0,52.966-23.713,52.966-52.966
	S467.689,179.494,438.436,179.494z" />
	<path style="fill:#E8C6B3;" d="M263.624,44.377c-2.528-0.152-5.068-0.239-7.625-0.239c-75.276,0-138.759,66.581-158.458,141.1
	c-7.201-3.664-15.345-5.744-23.979-5.744c-29.252,0-52.966,23.713-52.966,52.966s23.713,52.966,52.966,52.966
	c11.847,0,22.783-3.891,31.606-10.462c20.467,35.701,59.11,73.58,85.956,97.552c5.658,5.052,11.845,9.38,18.416,12.942
	c23.707-0.152,46.559-8.912,64.253-24.713c38.083-34.005,99.907-95.995,99.907-140.055
	C373.701,148.861,327.738,73.117,263.624,44.377z" />
	<g>
		<path style="fill:#DFB296;" d="M171.255,264.828h-11.77c-4.876,0-8.828-3.952-8.828-8.828s3.951-8.828,8.828-8.828h11.77
		c4.876,0,8.828,3.952,8.828,8.828S176.131,264.828,171.255,264.828z" />
		<path style="fill:#DFB296;" d="M352.514,264.828h-11.77c-4.876,0-8.828-3.952-8.828-8.828s3.951-8.828,8.828-8.828h11.77
		c4.876,0,8.828,3.952,8.828,8.828S357.391,264.828,352.514,264.828z" />
	</g>
	<circle style="fill:#CE9276;" cx="438.436" cy="232.46" r="17.655" />
	<g>
		<circle style="fill:#DFB296;" cx="73.563" cy="232.46" r="17.655" />
		<path style="fill:#DFB296;" d="M102.235,276.984c0.197-0.127,0.395-0.25,0.591-0.379
		C102.63,276.734,102.431,276.857,102.235,276.984z" />
		<path style="fill:#DFB296;" d="M100.045,278.322v0.014c0.109-0.064,0.213-0.134,0.321-0.199
		C100.261,278.2,100.153,278.26,100.045,278.322z" />
		<path style="fill:#DFB296;" d="M385.471,232.46c0-10.591,3.11-20.455,8.465-28.73c7.029-10.861,4.22-25.332-6.359-32.777l0,0
		l-5.749,5.763c-18.585,18.869-42.901,29.262-68.471,29.262h-4.391c-49.742,0-92.34-35.442-101.292-84.274l0,0
		c-3.482-18.999-25.476-28-41.279-16.891l0,0c-29.787,20.941-50.963,51.399-60.567,85.655c12.585,9.683,20.701,24.886,20.701,41.992
		c0,17.406-8.397,32.848-21.359,42.503c11.814,20.606,29.682,41.932,47.842,60.897V232.46c0-20.58,6.057-40.383,17.547-57.456
		c12.781,24.591,31.924,45.34,55.513,60.134c24.835,15.573,53.499,23.805,82.895,23.805h4.391c22.978,0,45.235-5.321,65.439-15.375
		c4.169-2.074,6.681-6.377,6.674-11.033C385.471,232.509,385.471,232.484,385.471,232.46z" />
	</g>
	<path style="fill:#706B63;" d="M255.999,8.828c-100.757,0-182.437,76.41-182.437,170.667c5.321,0,10.455,0.793,15.301,2.254v135.456
	h37.664V232.46c0-43.824,21.777-82.558,55.097-105.983c11.05,60.29,63.856,105.983,127.34,105.983h4.393
	c32.955,0,64.215-13.684,87.34-37.164c0.095-0.097,0.191-0.193,0.286-0.288c9.584-9.584,22.826-15.513,37.453-15.513
	C438.436,85.238,356.756,8.828,255.999,8.828z" />
	<path style="fill:#848075;" d="M351.785,34.218c-27.839-16.099-60.651-25.39-95.785-25.39c-79.786,0-147.6,47.918-172.376,114.666
	c14.085,13.977,36.895,13.15,50.198-1.574c8.075-8.937,17.181-17.045,27.215-24.131c20.974-14.81,50.284-2.855,55.32,22.322v0.001
	c0.171,0.93,0.354,1.855,0.551,2.774c12.631,58.951,86.127,80.063,129.235,37.916l50.66-49.529
	C396.365,80.747,380.581,50.87,351.785,34.218z" />
	<path d="M223.632,223.632c0-4.875-3.952-8.828-8.828-8.828h-35.31c-4.875,0-8.828,3.952-8.828,8.828s3.952,8.828,8.828,8.828
	c-4.875,0-8.828,3.952-8.828,8.828s3.952,8.828,8.828,8.828h35.31c4.875,0,8.828-3.952,8.828-8.828s-3.952-8.828-8.828-8.828
	C219.679,232.46,223.632,228.507,223.632,223.632z" />
	<path
		d="M262.193,263.246c-1.654,1.68-3.864,2.615-6.222,2.633c-2.358,0.018-4.582-0.884-6.261-2.538
	c-3.473-3.42-9.063-3.378-12.483,0.094c-3.422,3.473-3.379,9.063,0.094,12.485c5.04,4.963,11.711,7.668,18.785,7.614
	c7.074-0.054,13.703-2.86,18.666-7.9c3.42-3.473,3.378-9.063-0.096-12.485C271.204,259.729,265.615,259.772,262.193,263.246z" />
	<path d="M500.189,230.203c-0.543-15.182-6.714-29.619-17.376-40.652c-9.655-9.99-22.224-16.373-35.758-18.272
	C442.464,76.106,358.529,0,255.999,0C163.533,0,84.403,61.863,67.845,147.093c-0.93,4.786,2.196,9.42,6.982,10.349
	c4.795,0.936,9.42-2.196,10.349-6.982c14.949-76.953,86.792-132.806,170.823-132.806c92.797,0,168.82,68.223,173.389,153.689
	c-6.584,0.975-12.985,2.997-18.944,6.03c-4.343,2.213-6.072,7.528-3.861,11.873c2.213,4.343,7.526,6.072,11.873,3.861
	c7.096-3.612,15.088-5.229,23.1-4.679c22.189,1.529,40.193,20.155,40.988,42.403c0.432,12.113-3.95,23.572-12.342,32.27
	c-8.397,8.704-19.677,13.496-31.766,13.496c-7.019,0-13.782-1.625-19.909-4.735c7.35-14.53,11.082-27.757,11.082-39.403
	c0-4.868,3.959-8.828,8.828-8.828s8.828,3.959,8.828,8.828c0,4.876,3.951,8.828,8.828,8.828s8.828-3.951,8.828-8.828
	c0-14.602-11.881-26.483-26.483-26.483s-26.483,11.881-26.483,26.483c0,10.497-4.298,23.318-12.776,38.107
	c-0.001,0.001-0.001,0.002-0.002,0.004c-19.603,34.197-56.597,70.732-84.179,95.36c-5.586,4.987-11.738,9.183-18.283,12.569
	c-4.542,2.35-9.273,4.302-14.149,5.831c-8.522,2.674-17.466,4.083-26.564,4.083c-9.015,0-17.991-1.398-26.568-4.089
	c-4.868-1.528-9.604-3.477-14.148-5.825c-0.513-0.265-1.028-0.526-1.536-0.802c-0.005-0.002-0.008-0.004-0.013-0.006
	c-6.023-3.266-11.652-7.223-16.734-11.762c-17.236-15.391-41.669-38.667-61.648-63.26V232.46c0-34.77,15.081-67.712,40.887-90.493
	c3.955,13.543,9.887,26.15,17.442,37.528h-14.19c-4.875,0-8.828,3.952-8.828,8.828s3.952,8.828,8.828,8.828h28.105
	c20.994,22.573,49.359,37.935,80.908,42.623c-0.085,0.493-0.139,0.997-0.139,1.515c0,4.875,3.952,8.828,8.828,8.828h35.31
	c4.875,0,8.828-3.952,8.828-8.828c0-1.059-0.197-2.07-0.538-3.011c20.395-4.49,39.749-13.912,56.225-27.62
	c3.748-3.118,4.258-8.684,1.141-12.433s-8.683-4.26-12.433-1.141c-13.316,11.078-28.781,18.911-45.104,23.076
	c-8.903,2.273-18.058,3.47-27.265,3.47h-4.393c-6.946,0-13.768-0.607-20.424-1.744c-24.981-4.265-47.542-16.22-64.91-33.565
	c-2.793-2.79-5.44-5.727-7.953-8.785c-12.621-15.361-21.581-33.973-25.372-54.653c-0.006-0.034-0.016-0.065-0.024-0.099
	c-0.038-0.193-0.085-0.383-0.134-0.57c-0.026-0.099-0.049-0.199-0.08-0.298c-0.051-0.168-0.111-0.332-0.172-0.497
	c-0.044-0.117-0.084-0.234-0.133-0.351c-0.057-0.135-0.121-0.266-0.184-0.398c-0.066-0.138-0.131-0.275-0.205-0.411
	c-0.06-0.112-0.127-0.219-0.193-0.327c-0.087-0.145-0.174-0.29-0.271-0.431c-0.024-0.035-0.042-0.072-0.067-0.107
	c-0.052-0.073-0.109-0.138-0.162-0.208c-0.094-0.126-0.191-0.252-0.291-0.371c-0.099-0.119-0.202-0.233-0.307-0.345
	c-0.085-0.092-0.169-0.181-0.258-0.268c-0.128-0.127-0.261-0.25-0.397-0.367c-0.073-0.064-0.145-0.126-0.219-0.187
	c-0.152-0.125-0.308-0.244-0.468-0.357c-0.068-0.049-0.138-0.098-0.207-0.144c-0.164-0.111-0.332-0.214-0.503-0.313
	c-0.079-0.045-0.158-0.089-0.237-0.132c-0.162-0.087-0.327-0.168-0.494-0.245c-0.1-0.046-0.2-0.091-0.302-0.132
	c-0.149-0.062-0.301-0.119-0.454-0.173c-0.126-0.044-0.252-0.086-0.38-0.124c-0.134-0.04-0.27-0.078-0.406-0.112
	c-0.147-0.036-0.294-0.069-0.441-0.099c-0.126-0.025-0.253-0.046-0.38-0.065c-0.155-0.024-0.312-0.044-0.468-0.059
	c-0.131-0.013-0.261-0.021-0.393-0.028c-0.149-0.008-0.3-0.013-0.45-0.013s-0.299,0.006-0.448,0.013
	c-0.133,0.006-0.265,0.014-0.398,0.026c-0.172,0.016-0.344,0.041-0.516,0.067c-0.078,0.012-0.155,0.016-0.233,0.031
	c-0.038,0.007-0.074,0.019-0.112,0.026c-0.178,0.035-0.352,0.079-0.526,0.124c-0.113,0.029-0.227,0.056-0.34,0.091
	c-0.154,0.047-0.302,0.102-0.452,0.157c-0.132,0.048-0.265,0.094-0.394,0.149c-0.12,0.051-0.235,0.107-0.352,0.162
	c-0.154,0.073-0.307,0.145-0.459,0.227c-0.095,0.052-0.186,0.109-0.279,0.165c-0.161,0.097-0.323,0.194-0.479,0.301
	c-0.031,0.021-0.061,0.036-0.092,0.058c-36.848,25.912-58.846,68.23-58.846,113.21v108.285c0,4.876,3.951,8.828,8.828,8.828
	c4.876,0,8.828-3.951,8.828-8.828v-10.941c16.271,18.097,33.564,34.584,47.155,46.838c-32.117,22.962-51.903,60.033-52.988,99.45
	c-0.134,4.874,3.708,8.932,8.582,9.067c0.082,0.002,0.165,0.004,0.247,0.004c4.762,0,8.688-3.795,8.819-8.585
	c0.944-34.283,18.33-66.516,46.51-86.227c1.057-0.739,1.896-1.671,2.516-2.713c1.964,1.337,3.972,2.613,6.025,3.817l-11.313,11.313
	c-3.447,3.449-3.447,9.037,0,12.485l17.568,17.567c-5.391,8.006-4.549,18.991,2.526,26.066l36.172,36.172v8.113
	c0,4.876,3.951,8.828,8.828,8.828s8.828-3.951,8.828-8.828v-11.764v-0.012V433.14c0-4.876-3.951-8.828-8.828-8.828
	s-8.828,3.951-8.828,8.828v36.95l-23.687-23.687c-1.149-1.148-1.149-3.014,0-4.161l3.447-3.447c3.447-3.449,3.447-9.037,0-12.485
	l-17.301-17.299l9.544-9.544c11.758,4.336,24.258,6.602,36.823,6.602c12.696,0,25.147-2.276,36.831-6.59l9.534,9.533l-17.299,17.297
	c-3.447,3.449-3.447,9.037,0,12.485l3.447,3.447c1.149,1.148,1.149,3.014,0,4.161l-9.136,9.136c-3.447,3.449-3.447,9.037,0,12.485
	c1.724,1.723,3.984,2.585,6.243,2.585s4.519-0.862,6.243-2.585l9.136-9.136c3.89-3.891,6.032-9.063,6.032-14.566
	c0-4.16-1.225-8.132-3.504-11.503l17.565-17.565c3.447-3.449,3.447-9.037,0-12.485l-11.319-11.319
	c2.048-1.202,4.062-2.465,6.031-3.806c0.62,1.038,1.457,1.969,2.513,2.707c28.179,19.71,45.566,51.944,46.51,86.227
	c0.132,4.79,4.056,8.585,8.819,8.585c0.082,0,0.165-0.001,0.247-0.004c4.874-0.134,8.716-4.194,8.582-9.067
	c-1.085-39.415-20.87-76.485-52.984-99.447c26.131-23.553,59.467-56.793,80.242-89.447c8.256,4.349,17.364,6.74,26.832,7.019
	c2.87,12.586,6.618,25.026,11.198,37.069c3.117,8.199,2.041,17.054-2.952,24.297c-5.028,7.292-12.99,11.474-21.841,11.474h-65.131
	c-4.876,0-8.828,3.951-8.828,8.828s3.951,8.828,8.828,8.828h65.131c14.527,0,28.125-7.142,36.374-19.106
	c8.214-11.914,10.054-27.09,4.919-40.594c-4.054-10.661-7.409-21.656-10.035-32.782c10.817-2.833,20.684-8.579,28.678-16.864
	C494.659,263.186,500.794,247.148,500.189,230.203z" />
	<path d="M163.079,375.883c0-4.876-3.951-8.828-8.828-8.828H89.026c-8.851,0-16.811-4.182-21.841-11.474
	c-4.993-7.242-6.069-16.098-2.952-24.297c4.58-12.042,8.329-24.481,11.198-37.065c5.393-0.161,10.721-1.013,15.864-2.552
	c4.416-1.321,7.03-5.79,6.122-10.221c0.114-0.56,0.174-1.141,0.177-1.734l0.378-97.845c0.015-3.887-2.513-7.325-6.225-8.47
	c-7.268-2.241-14.843-3.111-22.524-2.582c-15.152,1.046-29.371,7.7-40.037,18.736C18.522,200.584,12.352,215.02,11.808,230.2
	c-0.606,16.945,5.531,32.983,17.281,45.162c7.994,8.285,17.861,14.031,28.678,16.864c-2.626,11.127-5.982,22.121-10.035,32.782
	c-5.135,13.505-3.297,28.68,4.919,40.594c8.251,11.964,21.849,19.106,36.374,19.106h65.225
	C159.127,384.711,163.079,380.759,163.079,375.883z M41.795,263.102c-8.392-8.697-12.775-20.158-12.341-32.27
	c0.797-22.247,18.799-40.873,40.984-42.402c1.046-0.073,2.088-0.108,3.127-0.108c2.265,0,4.509,0.172,6.724,0.512l-0.066,17.143
	h-6.661c-14.602,0-26.483,11.881-26.483,26.483c0,4.876,3.951,8.828,8.828,8.828s8.828-3.951,8.828-8.828
	c0-4.868,3.959-8.828,8.828-8.828h6.592l-0.202,52.506c-2.107,0.305-4.242,0.459-6.39,0.459
	C61.474,276.598,50.192,271.805,41.795,263.102z" />
	<path
		d="M335.302,424.107c-4.666-1.419-9.596,1.21-11.016,5.873c-4.309,14.155-6.494,28.88-6.494,43.767
	c0,6.956,0.492,14.002,1.462,20.939c0.617,4.415,4.397,7.607,8.731,7.607c0.407,0,0.819-0.028,1.235-0.086
	c4.413-0.617,7.606-4.397,7.606-8.73c0-0.408-0.028-0.82-0.086-1.236c-0.858-6.131-1.292-12.353-1.292-18.494
	c0-13.144,1.928-26.139,5.727-38.624c0.261-0.857,0.385-1.722,0.385-2.574C341.561,428.765,339.108,425.266,335.302,424.107z" />
	<path
		d="M176.697,424.107c-3.806,1.158-6.259,4.659-6.258,8.443c0,0.852,0.124,1.717,0.385,2.574
	c3.799,12.484,5.727,25.48,5.727,38.624c0,6.142-0.434,12.363-1.292,18.494c-0.058,0.415-0.086,0.827-0.086,1.236
	c0,4.333,3.193,8.113,7.606,8.73c0.415,0.058,0.827,0.086,1.235,0.086c4.333,0,8.114-3.193,8.731-7.607
	c0.97-6.938,1.462-13.983,1.462-20.939c0-14.887-2.185-29.612-6.494-43.767C186.293,425.318,181.364,422.684,176.697,424.107z" />
</svg>